<?xml version="1.0" standalone="no"?>
<!DOCTYPE svg PUBLIC "-//W3C//DTD SVG 20010904//EN"
 "http://www.w3.org/TR/2001/REC-SVG-20010904/DTD/svg10.dtd">
<svg version="1.0" xmlns="http://www.w3.org/2000/svg"
 width="1280.000000pt" height="643.000000pt" viewBox="0 0 1280.000000 643.000000"
 preserveAspectRatio="xMidYMid meet">
<metadata>
Created by potrace 1.15, written by Peter Selinger 2001-2017
</metadata>
<g transform="translate(0.000000,643.000000) scale(0.100000,-0.100000)"
fill="#000000" stroke="none">
<path d="M12590 6423 c-1571 -117 -4564 -384 -8685 -773 -352 -33 -830 -78
-1062 -100 -233 -22 -613 -58 -845 -80 -2004 -188 -1989 -187 -1992 -192 -2
-2 262 -361 586 -798 323 -437 640 -866 704 -953 l116 -157 -50 -148 c-134
-392 -290 -1003 -551 -2157 -107 -472 -119 -530 -117 -532 5 -5 153 39 261 77
471 165 1470 582 1865 780 l115 57 709 -724 708 -724 32 24 c17 13 445 332
951 709 3101 2307 5125 3834 6440 4857 650 506 1025 812 1004 819 -5 2 -7 7
-4 11 2 4 -17 4 -43 0 -26 -4 -56 -8 -67 -8 l-20 0 20 9 c18 8 18 8 -5 8 -14
-1 -45 -3 -70 -5z m37 -19 c-3 -3 -12 -4 -19 -1 -8 3 -5 6 6 6 11 1 17 -2 13
-5z m128 -7 c-23 -16 -55 -28 -55 -22 0 6 53 34 65 35 5 0 1 -6 -10 -13z
m-270 -12 c-5 -2 -102 -24 -215 -49 -709 -155 -2905 -701 -5230 -1301 -289
-74 -649 -167 -800 -206 -151 -39 -531 -137 -845 -219 -313 -82 -804 -210
-1090 -284 -286 -74 -1035 -271 -1665 -436 -684 -180 -1150 -298 -1158 -293
-8 4 -316 373 -686 818 l-672 810 45 8 c26 4 377 37 781 73 404 35 956 85
1225 109 270 25 942 85 1495 135 553 50 1127 101 1275 115 1038 95 2052 188
2230 205 116 11 406 38 645 60 1973 184 3817 364 4385 429 247 28 299 33 280
26z m130 -63 c-6 -5 -62 -44 -125 -87 -867 -592 -3753 -2730 -7175 -5315 -511
-386 -935 -704 -942 -707 -10 -4 -2032 1955 -2041 1977 -2 4 3 10 10 13 7 3
519 203 1138 445 4868 1904 8229 3257 9060 3646 81 37 89 41 75 28z m-376 -76
c-2 -2 -49 -20 -104 -39 -498 -174 -2798 -1078 -4930 -1937 -1639 -660 -5013
-2034 -5024 -2046 -3 -3 5 -14 18 -25 13 -11 22 -21 20 -22 -2 -2 -31 -20 -64
-41 -76 -49 -477 -450 -691 -691 -174 -196 -534 -616 -654 -762 -41 -50 -78
-92 -82 -92 -4 -1 -3 11 3 27 17 44 262 829 364 1167 205 680 322 1117 386
1445 17 91 32 166 33 167 1 1 456 120 1011 263 4595 1189 8359 2192 9525 2538
155 47 199 58 189 48z m-9347 -4767 c-4 -4 -32 -14 -62 -24 -358 -114 -1594
-629 -1964 -818 -55 -28 -105 -54 -110 -56 -4 -2 47 50 115 115 259 247 826
815 965 966 187 202 325 368 366 441 l33 58 332 -338 c182 -186 329 -341 325
-344z"/>
</g>
</svg>
